<svg xmlns="http://www.w3.org/2000/svg" viewBox="0 0 1000 1000" width="2048" height="2048" shape-rendering="geometricPrecision">
  <circle cx="500" cy="500" r="500" fill="#0A0A0A"/>
  <g transform="translate(47, 45) scale(0.91)" fill="#F2EAD8">
    <polygon points="235,175 815,170 800,335 220,335"/>
    <path d="M 800 335 C 660 365, 480 585, 200 700 L 380 700 C 580 605, 700 385, 745 335 Z"/>
    <path d="M 200 700 L 765 700 C 800 715, 810 790, 760 830 L 180 830 Z"/>
    <polygon points="700,235 705,250 721,251 708,260 713,275 700,266 687,275 692,260 679,251 695,250"/>
  </g>
</svg>
